# xmcd CD database file
# Copyright (C) 1996 Ti Kan
#
# Track frame offsets:
# 	150
# 	11050
# 	21435
# 	30070
# 	40405
# 	49555
# 	61825
# 	73642
# 	87557
# 	98997
# 	108027
# 	118010
#
# Disc length: 1743 seconds
#
# Revision: 1
# Processed by: cddbd v1.4b41PL1 Copyright (c) Steve Scherf et al.
# Submitted via: DiscPlay 3.3
#
DISCID=9306cd0c
DTITLE=Johnny Cash - The Fabulous Johnny Cash
DYEAR=1900
DGENRE=
TTITLE0=Run Softly, Blue River
TTITLE1=Frankie's Man Johnny
TTITLE2=That's All Over
TTITLE3=The Troubador
TTITLE4=One More Ride
TTITLE5=That's Enough
TTITLE6=I Still Miss Someone
TTITLE7=Don't Take Your Guns To Town
TTITLE8=I'd Rather Die Young
TTITLE9=Pickin' Time
TTITLE10=Shepard Of My Heart
TTITLE11=Supper Time
EXTD=
EXTT0=
EXTT1=
EXTT2=
EXTT3=
EXTT4=
EXTT5=
EXTT6=
EXTT7=
EXTT8=
EXTT9=
EXTT10=
EXTT11=
PLAYORDER=
